<?xml version="1.0" standalone="yes"?>
<svg xmlns="http://www.w3.org/2000/svg" width="193" height="185">
<path style="fill:#222226; stroke:none;" d="M0 0L0 185L193 185L193 0L0 0z"/>
<path style="fill:#5e5c5a; stroke:none;" d="M87 20L87 21L92 22L92 21L87 20z"/>
<path style="fill:#6d7176; stroke:none;" d="M89.6667 20.3333L90.3333 20.6667L89.6667 20.3333z"/>
<path style="fill:#8b9196; stroke:none;" d="M91 20L91 21L104 21L91 20z"/>
<path style="fill:#6d7176; stroke:none;" d="M104 20L104 21L108 22L108 21L104 20z"/>
<path style="fill:#5e5c5a; stroke:none;" d="M106.667 20.3333L107.333 20.6667L106.667 20.3333M82 21L84 23L82 21z"/>
<path style="fill:#6d7176; stroke:none;" d="M83 21L84 22L83 21z"/>
<path style="fill:#8b9196; stroke:none;" d="M84 21L84 22L87 22L84 21z"/>
<path style="fill:#6d7176; stroke:none;" d="M87.6667 21.3333L88.3333 21.6667L87.6667 21.3333z"/>
<path style="fill:#222226; stroke:none;" d="M26 92L73 92L73 93L26 93C30.5015 101.664 45.2229 103.214 54 104.576C81.2971 108.811 109.668 108.754 137 105C146.701 103.668 163.156 102.846 168 93L87 93L87 92L169 92C168.993 81.4775 166.909 71.4707 162.244 62C135.262 7.22702 57.3862 9.38443 31.7816 64C27.6548 72.8026 26.0064 82.3379 26 92z"/>
<path style="fill:#5e5c5a; stroke:none;" d="M103 21L103 22L106 22L103 21z"/>
<path style="fill:#8b9196; stroke:none;" d="M108 21L108 22L111 22L108 21z"/>
<path style="fill:#6d7176; stroke:none;" d="M111 21L113 23L111 21z"/>
<path style="fill:#5e5c5a; stroke:none;" d="M112 21L113 22L112 21M78 22L80 24L78 22z"/>
<path style="fill:#6d7176; stroke:none;" d="M79 22L80 23L79 22z"/>
<path style="fill:#8b9196; stroke:none;" d="M80.6667 22.3333L81.3333 22.6667L80.6667 22.3333z"/>
<path style="fill:#6d7176; stroke:none;" d="M82 22L83 23L82 22z"/>
<path style="fill:#5e5c5a; stroke:none;" d="M111 22L112 23L111 22z"/>
<path style="fill:#8b9196; stroke:none;" d="M113.667 22.3333L114.333 22.6667L113.667 22.3333z"/>
<path style="fill:#6d7176; stroke:none;" d="M115 22L117 24L115 22z"/>
<path style="fill:#5e5c5a; stroke:none;" d="M116 22L117 23L116 22M74 23L76 25L74 23z"/>
<path style="fill:#6d7176; stroke:none;" d="M75 23L76 24L75 23z"/>
<path style="fill:#8b9196; stroke:none;" d="M76.6667 23.3333L77.3333 23.6667L76.6667 23.3333z"/>
<path style="fill:#6d7176; stroke:none;" d="M78 23L79 24L78 23z"/>
<path style="fill:#5e5c5a; stroke:none;" d="M115 23L116 24L115 23z"/>
<path style="fill:#8b9196; stroke:none;" d="M117.667 23.3333L118.333 23.6667L117.667 23.3333z"/>
<path style="fill:#6d7176; stroke:none;" d="M119 23L120 24L119 23z"/>
<path style="fill:#5e5c5a; stroke:none;" d="M120 23L119 25L120 23z"/>
<path style="fill:#6d7176; stroke:none;" d="M72 24L73 25L72 24z"/>
<path style="fill:#8b9196; stroke:none;" d="M73.6667 24.3333L74.3333 24.6667L73.6667 24.3333M120.667 24.3333L121.333 24.6667L120.667 24.3333z"/>
<path style="fill:#6d7176; stroke:none;" d="M122 24L123 25L122 24z"/>
<path style="fill:#5e5c5a; stroke:none;" d="M69 25L71 27L69 25z"/>
<path style="fill:#8b9196; stroke:none;" d="M70.6667 25.3333L71.3333 25.6667L70.6667 25.3333z"/>
<path style="fill:#5e5c5a; stroke:none;" d="M72 25L73 26L72 25M122 25L123 26L122 25z"/>
<path style="fill:#8b9196; stroke:none;" d="M123.667 25.3333L124.333 25.6667L123.667 25.3333z"/>
<path style="fill:#5e5c5a; stroke:none;" d="M125 25L124 27L125 25z"/>
<path style="fill:#6d7176; stroke:none;" d="M67.3333 26.6667L67.6667 27.3333L67.3333 26.6667z"/>
<path style="fill:#8b9196; stroke:none;" d="M68 26L69 27L68 26z"/>
<path style="fill:#6d7176; stroke:none;" d="M69 26L70 27L69 26M125 26L126 27L125 26z"/>
<path style="fill:#8b9196; stroke:none;" d="M126 26L127 27L126 26z"/>
<path style="fill:#6d7176; stroke:none;" d="M127.333 26.6667L127.667 27.3333L127.333 26.6667M65 27L66 28L65 27z"/>
<path style="fill:#8b9196; stroke:none;" d="M66 27L67 28L66 27M128 27L129 28L128 27z"/>
<path style="fill:#6d7176; stroke:none;" d="M129 27L130 28L129 27M63 28L64 29L63 28z"/>
<path style="fill:#8b9196; stroke:none;" d="M64 28L65 29L64 28z"/>
<path style="fill:#5e5c5a; stroke:none;" d="M65 28L66 29L65 28M129 28L130 29L129 28z"/>
<path style="fill:#8b9196; stroke:none;" d="M130 28L131 29L130 28z"/>
<path style="fill:#6d7176; stroke:none;" d="M131.333 28.6667L131.667 29.3333L131.333 28.6667z"/>
<path style="fill:#5e5c5a; stroke:none;" d="M61 29L62 30L61 29z"/>
<path style="fill:#8b9196; stroke:none;" d="M62 29L63 30L62 29z"/>
<path style="fill:#5e5c5a; stroke:none;" d="M63 29L64 30L63 29z"/>
<path style="fill:#8b9196; stroke:none;" d="M132 29L133 30L132 29z"/>
<path style="fill:#5e5c5a; stroke:none;" d="M133 29L134 30L133 29M59 30L61 32L59 30z"/>
<path style="fill:#8b9196; stroke:none;" d="M60 30L61 31L60 30z"/>
<path style="fill:#6d7176; stroke:none;" d="M61 30L62 31L61 30M133 30L134 31L133 30z"/>
<path style="fill:#8b9196; stroke:none;" d="M134 30L136 32L134 30z"/>
<path style="fill:#5e5c5a; stroke:none;" d="M135 30L136 31L135 30z"/>
<path style="fill:#6d7176; stroke:none;" d="M58 31L59 32L58 31z"/>
<path style="fill:#8b9196; stroke:none;" d="M59 31L60 32L59 31z"/>
<path style="fill:#5e5c5a; stroke:none;" d="M134 31L135 32L134 31z"/>
<path style="fill:#6d7176; stroke:none;" d="M136 31L137 32L136 31z"/>
<path style="fill:#5e5c5a; stroke:none;" d="M56 32L57 33L56 32z"/>
<path style="fill:#8b9196; stroke:none;" d="M57 32L58 33L57 32z"/>
<path style="fill:#5e5c5a; stroke:none;" d="M58 32L59 33L58 32M136 32L137 33L136 32z"/>
<path style="fill:#8b9196; stroke:none;" d="M137 32L139 34L137 32z"/>
<path style="fill:#5e5c5a; stroke:none;" d="M138 32L139 33L138 32z"/>
<path style="fill:#6d7176; stroke:none;" d="M55 33L56 34L55 33z"/>
<path style="fill:#8b9196; stroke:none;" d="M56 33L57 34L56 33z"/>
<path style="fill:#6d7176; stroke:none;" d="M139 33L140 34L139 33z"/>
<path style="fill:#5e5c5a; stroke:none;" d="M52 35L52 36L56 35L52 35z"/>
<path style="fill:#8b9196; stroke:none;" d="M54 34L55 35L54 34z"/>
<path style="fill:#5e5c5a; stroke:none;" d="M139 34L139 35L143 36L143 35L139 34z"/>
<path style="fill:#8b9196; stroke:none;" d="M140 34L141 35L140 34M53 35L54 36L53 35M141 35L142 36L141 35z"/>
<path style="fill:#6d7176; stroke:none;" d="M51 36L51 38L53 36L51 36M142 36L144 38L144 36L142 36z"/>
<path style="fill:#8b9196; stroke:none;" d="M50 37L42 46L50 37M144 37L153 46L144 37z"/>
<path style="fill:#5e5c5a; stroke:none;" d="M50 38L51 39L50 38M144 38L145 39L144 38M47 39L48 40L47 39M49 39L50 40L49 39M145 39L146 40L145 39M147 39L148 40L147 39M46 40L47 41L46 40M48 40L49 41L48 40M146 40L147 41L146 40M148 40L149 41L148 40M45 41L46 42L45 41M47 41L48 42L47 41M147 41L148 42L147 41M149 41L150 42L149 41M44 42L45 43L44 42M46 42L47 43L46 42M148 42L149 43L148 42M150 42L151 43L150 42M43 43L44 44L43 43M45 43L46 44L45 43M149 43L150 44L149 43M151 43L152 44L151 43M44 44L45 45L44 44M150 44L151 45L150 44M43 45L44 46L43 45M151 45L152 46L151 45z"/>
<path style="fill:#6d7176; stroke:none;" d="M41 46L40 48L42 48L41 46z"/>
<path style="fill:#5e5c5a; stroke:none;" d="M42 46L43 47L42 46M152 46L153 47L152 46z"/>
<path style="fill:#6d7176; stroke:none;" d="M153 46L153 48L155 48L153 46z"/>
<path style="fill:#5e5c5a; stroke:none;" d="M39 48L40 49L39 48z"/>
<path style="fill:#8b9196; stroke:none;" d="M40 48L41 49L40 48M154 48L157 51L154 48z"/>
<path style="fill:#5e5c5a; stroke:none;" d="M155 48L156 49L155 48z"/>
<path style="fill:#8b9196; stroke:none;" d="M39 49L38 51L39 49z"/>
<path style="fill:#5e5c5a; stroke:none;" d="M39 50L40 51L39 50M155 50L156 51L155 50z"/>
<path style="fill:#6d7176; stroke:none;" d="M37.6667 51.3333L38.3333 51.6667L37.6667 51.3333M156.667 51.3333L157.333 51.6667L156.667 51.3333z"/>
<path style="fill:#5e5c5a; stroke:none;" d="M36 52L38 54L36 52z"/>
<path style="fill:#8b9196; stroke:none;" d="M37 52L38 53L37 52M157 52L159 54L157 52z"/>
<path style="fill:#5e5c5a; stroke:none;" d="M158 52L159 53L158 52z"/>
<path style="fill:#8b9196; stroke:none;" d="M36 53L37 54L36 53z"/>
<path style="fill:#5e5c5a; stroke:none;" d="M157 53L158 54L157 53M35 54L36 55L35 54z"/>
<path style="fill:#6d7176; stroke:none;" d="M36 54L37 55L36 54M158 54L159 55L158 54z"/>
<path style="fill:#5e5c5a; stroke:none;" d="M159 54L160 55L159 54z"/>
<path style="fill:#8b9196; stroke:none;" d="M35 55L36 56L35 55M159 55L160 56L159 55z"/>
<path style="fill:#6d7176; stroke:none;" d="M34 56L35 57L34 56z"/>
<path style="fill:#5e5c5a; stroke:none;" d="M35 56L36 57L35 56z"/>
<path style="fill:#3f607f; stroke:none;" d="M113 56L114 59L115 59L113 56z"/>
<path style="fill:#6d7176; stroke:none;" d="M114.667 56.3333L115.333 56.6667L114.667 56.3333z"/>
<path style="fill:#3f607f; stroke:none;" d="M117 56L118 57L117 56z"/>
<path style="fill:#8b9196; stroke:none;" d="M118.333 56.6667L118.667 57.3333L118.333 56.6667z"/>
<path style="fill:#5e5c5a; stroke:none;" d="M119.333 56.6667L119.667 57.3333L119.333 56.6667M159 56L160 57L159 56z"/>
<path style="fill:#6d7176; stroke:none;" d="M160 56L161 57L160 56z"/>
<path style="fill:#5e5c5a; stroke:none;" d="M33 57L35 59L33 57z"/>
<path style="fill:#8b9196; stroke:none;" d="M34 57L35 58L34 57M115 57L116 58L115 57z"/>
<path style="fill:#5e5c5a; stroke:none;" d="M116 57L117 58L116 57z"/>
<path style="fill:#8b9196; stroke:none;" d="M160 57L162 59L160 57z"/>
<path style="fill:#5e5c5a; stroke:none;" d="M161 57L162 58L161 57z"/>
<path style="fill:#8b9196; stroke:none;" d="M33 58L34 59L33 58z"/>
<path style="fill:#6d7176; stroke:none;" d="M115 58L114 61L115 58z"/>
<path style="fill:#5e5c5a; stroke:none;" d="M118 58L119 59L118 58M160 58L161 59L160 58M32 59L34 61L32 59z"/>
<path style="fill:#6d7176; stroke:none;" d="M33 59L34 60L33 59M161 59L162 60L161 59z"/>
<path style="fill:#5e5c5a; stroke:none;" d="M162 59L161 61L162 59z"/>
<path style="fill:#8b9196; stroke:none;" d="M32 60L33 61L32 60z"/>
<path style="fill:#5e5c5a; stroke:none;" d="M115.333 60.6667L115.667 61.3333L115.333 60.6667z"/>
<path style="fill:#8b9196; stroke:none;" d="M162 60L163 61L162 60z"/>
<path style="fill:#5e5c5a; stroke:none;" d="M31 61L33 63L31 61z"/>
<path style="fill:#6d7176; stroke:none;" d="M32 61L33 62L32 61z"/>
<path style="fill:#8b9196; stroke:none;" d="M114.333 61.6667L114.667 62.3333L114.333 61.6667z"/>
<path style="fill:#6d7176; stroke:none;" d="M162 61L163 62L162 61z"/>
<path style="fill:#5e5c5a; stroke:none;" d="M163 61L162 63L163 61z"/>
<path style="fill:#8b9196; stroke:none;" d="M31.3333 62.6667L31.6667 63.3333L31.3333 62.6667z"/>
<path style="fill:#3f607f; stroke:none;" d="M113.333 62.6667L113.667 63.3333L113.333 62.6667z"/>
<path style="fill:#8b9196; stroke:none;" d="M163.333 62.6667L163.667 63.3333L163.333 62.6667z"/>
<path style="fill:#5e5c5a; stroke:none;" d="M30 63L32 65L30 63z"/>
<path style="fill:#6d7176; stroke:none;" d="M114 63L115 64L114 63z"/>
<path style="fill:#5e5c5a; stroke:none;" d="M164 63L163 65L164 63z"/>
<path style="fill:#6d7176; stroke:none;" d="M30 64L31 65L30 64M164 64L165 65L164 64z"/>
<path style="fill:#8b9196; stroke:none;" d="M30 65L31 66L30 65M164 65L165 66L164 65z"/>
<path style="fill:#5e5c5a; stroke:none;" d="M29 66L30 67L29 66z"/>
<path style="fill:#6d7176; stroke:none;" d="M30 66L31 67L30 66M164 66L165 67L164 66z"/>
<path style="fill:#5e5c5a; stroke:none;" d="M165 66L166 67L165 66z"/>
<path style="fill:#8b9196; stroke:none;" d="M29.3333 67.6667L29.6667 68.3333L29.3333 67.6667M165.333 67.6667L165.667 68.3333L165.333 67.6667z"/>
<path style="fill:#5e5c5a; stroke:none;" d="M28 68L30 70L28 68M166 68L165 70L166 68z"/>
<path style="fill:#6d7176; stroke:none;" d="M28 69L29 70L28 69M166 69L167 70L166 69z"/>
<path style="fill:#8b9196; stroke:none;" d="M28.3333 70.6667L28.6667 71.3333L28.3333 70.6667M166.333 70.6667L166.667 71.3333L166.333 70.6667z"/>
<path style="fill:#5e5c5a; stroke:none;" d="M27 71L29 73L27 71M167 71L166 73L167 71z"/>
<path style="fill:#6d7176; stroke:none;" d="M27 72L28 73L27 72M167 72L168 73L167 72z"/>
<path style="fill:#8b9196; stroke:none;" d="M27.3333 73.6667L27.6667 74.3333L27.3333 73.6667M167.333 73.6667L167.667 74.3333L167.333 73.6667z"/>
<path style="fill:#5e5c5a; stroke:none;" d="M26 75L28 77L26 75z"/>
<path style="fill:#6d7176; stroke:none;" d="M27 75L28 76L27 75M167 75L169 77L167 75z"/>
<path style="fill:#5e5c5a; stroke:none;" d="M168 75L169 76L168 75z"/>
<path style="fill:#6d7176; stroke:none;" d="M26 76L27 77L26 76z"/>
<path style="fill:#5e5c5a; stroke:none;" d="M167 76L168 77L167 76z"/>
<path style="fill:#8b9196; stroke:none;" d="M26 77L26 80L27 80L26 77M168 77L168 80L169 80L168 77z"/>
<path style="fill:#5e5c5a; stroke:none;" d="M120 78L121 79L120 78M25 79L26 83L27 83L25 79M104 79L105 80L104 79M169 79L168 83L169 83L169 79z"/>
<path style="fill:#6d7176; stroke:none;" d="M26 80L27 81L26 80M168 80L169 81L168 80M25.3333 81.6667L25.6667 82.3333L25.3333 81.6667M169.333 81.6667L169.667 82.3333L169.333 81.6667z"/>
<path style="fill:#8b9196; stroke:none;" d="M25 83L25 87L26 87L25 83M169 83L169 87L170 87L169 83z"/>
<path style="fill:#5e5c5a; stroke:none;" d="M34 85L35 86L34 85z"/>
<path style="fill:#3f607f; stroke:none;" d="M82 85L83 86L82 85z"/>
<path style="fill:#8b9196; stroke:none;" d="M83 85L84 86L83 85z"/>
<path style="fill:#6d7176; stroke:none;" d="M84 85L83 88L84 85z"/>
<path style="fill:#5e5c5a; stroke:none;" d="M24 87L24 93L25 93L24 87z"/>
<path style="fill:#6d7176; stroke:none;" d="M25 87L24 94L25 94L25 87z"/>
<path style="fill:#5e5c5a; stroke:none;" d="M84.3333 87.6667L84.6667 88.3333L84.3333 87.6667M164 87L165 88L164 87z"/>
<path style="fill:#6d7176; stroke:none;" d="M169 87L169 93L170 93L169 87z"/>
<path style="fill:#5e5c5a; stroke:none;" d="M170 87L170 99L171 99L170 87z"/>
<path style="fill:#8b9196; stroke:none;" d="M83.3333 88.6667L83.6667 89.3333L83.3333 88.6667z"/>
<path style="fill:#6d7176; stroke:none;" d="M79 89L77 92L79 89z"/>
<path style="fill:#5e5c5a; stroke:none;" d="M78 93L79 93L82 90L78 93z"/>
<path style="fill:#6d7176; stroke:none;" d="M82 89L82 92L84 91L84 90L82 89z"/>
<path style="fill:#222226; stroke:none;" d="M80 90L79 96L80 96L82 90L80 90z"/>
<path style="fill:#5e5c5a; stroke:none;" d="M96 90L87 92L87 93L97 95L96 90z"/>
<path style="fill:#8b9196; stroke:none;" d="M97 90L97 95L99 95L99 90L97 90z"/>
<path style="fill:#5e5c5a; stroke:none;" d="M99 90L100 91L99 90M83.3333 91.6667L83.6667 92.3333L83.3333 91.6667M100 91L100 94L101 94L126 93L169 94C165.492 89.9858 155.06 92 150 92C134.133 92 115.455 94.6796 100 91M26 92L26 93L73 93C60.8234 87.8905 39.265 92 26 92z"/>
<path style="fill:#8b9196; stroke:none;" d="M77 92L78 97L79 97L77 92M82.3333 92.6667L82.6667 93.3333L82.3333 92.6667M25 93L25 96L26 96L25 93z"/>
<path style="fill:#3f607f; stroke:none;" d="M76.3333 93.6667L76.6667 94.3333L76.3333 93.6667M81 93L81 97L82 97L81 93z"/>
<path style="fill:#8b9196; stroke:none;" d="M169 93L170 94L169 93z"/>
<path style="fill:#5e5c5a; stroke:none;" d="M24 94L24 99L25 99L24 94z"/>
<path style="fill:#6d7176; stroke:none;" d="M82 94L81 95L84 97L82 94z"/>
<path style="fill:#5e5c5a; stroke:none;" d="M99 94L100 95L99 94z"/>
<path style="fill:#6d7176; stroke:none;" d="M168 94L169 99L170 99L168 94M26 95L25 99L26 99L28 96L26 95z"/>
<path style="fill:#5e5c5a; stroke:none;" d="M78 95L79 96L78 95M166 96L166 97L169 97L166 96z"/>
<path style="fill:#8b9196; stroke:none;" d="M168 95L169 96L168 95z"/>
<path style="fill:#3f607f; stroke:none;" d="M77 96L78 97L77 96z"/>
<path style="fill:#6d7176; stroke:none;" d="M79 96L80 97L79 96z"/>
<path style="fill:#5e5c5a; stroke:none;" d="M80 96L81 97L80 96z"/>
<path style="fill:#8b9196; stroke:none;" d="M82 96L83 97L82 96M167 96L166 98L167 96z"/>
<path style="fill:#222226; stroke:none;" d="M26 97C26.194 106.398 28.6119 115.587 32.7562 124C59.0788 177.436 135.921 177.435 162.244 124C166.388 115.587 168.806 106.398 169 97C137.888 108.322 107.079 110.408 74 108.09C57.4223 106.928 40.8943 104.804 26 97z"/>
<path style="fill:#5e5c5a; stroke:none;" d="M27 97L27 98L30 98L30 97L27 97z"/>
<path style="fill:#8b9196; stroke:none;" d="M28 97L29 98L28 97z"/>
<path style="fill:#6d7176; stroke:none;" d="M165 97L166 98L165 97M29 98L30 99L29 98z"/>
<path style="fill:#8b9196; stroke:none;" d="M30 98L33 100L33 99L30 98z"/>
<path style="fill:#5e5c5a; stroke:none;" d="M31 98L32 99L31 98M163 98L164 99L163 98z"/>
<path style="fill:#8b9196; stroke:none;" d="M164 98L165 99L164 98z"/>
<path style="fill:#5e5c5a; stroke:none;" d="M165 98L166 99L165 98z"/>
<path style="fill:#8b9196; stroke:none;" d="M25 99L25 103L26 103L25 99z"/>
<path style="fill:#5e5c5a; stroke:none;" d="M30 99L31 100L30 99M33 99L32 101L33 99z"/>
<path style="fill:#6d7176; stroke:none;" d="M161 99L162 100L161 99z"/>
<path style="fill:#8b9196; stroke:none;" d="M162 99L163 100L162 99z"/>
<path style="fill:#6d7176; stroke:none;" d="M163 99L164 100L163 99z"/>
<path style="fill:#8b9196; stroke:none;" d="M169 99L169 103L170 103L169 99z"/>
<path style="fill:#6d7176; stroke:none;" d="M33 100L34 101L33 100z"/>
<path style="fill:#8b9196; stroke:none;" d="M34 100L35 101L34 100z"/>
<path style="fill:#6d7176; stroke:none;" d="M35 100L37 102L35 100z"/>
<path style="fill:#5e5c5a; stroke:none;" d="M36 100L37 101L36 100M158 100L160 102L158 100z"/>
<path style="fill:#8b9196; stroke:none;" d="M159.667 100.333L160.333 100.667L159.667 100.333z"/>
<path style="fill:#5e5c5a; stroke:none;" d="M161 100L162 101L161 100M35 101L36 102L35 101z"/>
<path style="fill:#8b9196; stroke:none;" d="M37 101L38 102L37 101z"/>
<path style="fill:#6d7176; stroke:none;" d="M38 101L40 103L38 101z"/>
<path style="fill:#5e5c5a; stroke:none;" d="M39 101L40 102L39 101M155 101L155 103L157 103L155 101z"/>
<path style="fill:#8b9196; stroke:none;" d="M156.667 101.333L157.333 101.667L156.667 101.333z"/>
<path style="fill:#6d7176; stroke:none;" d="M158 101L159 102L158 101z"/>
<path style="fill:#5e5c5a; stroke:none;" d="M38 102L39 103L38 102z"/>
<path style="fill:#8b9196; stroke:none;" d="M40.6667 102.333L41.3333 102.667L40.6667 102.333z"/>
<path style="fill:#6d7176; stroke:none;" d="M42 102L44 104L42 102z"/>
<path style="fill:#5e5c5a; stroke:none;" d="M43 102L44 103L43 102M151 102L153 104L151 102z"/>
<path style="fill:#6d7176; stroke:none;" d="M152 102L153 103L152 102z"/>
<path style="fill:#8b9196; stroke:none;" d="M153.667 102.333L154.333 102.667L153.667 102.333z"/>
<path style="fill:#6d7176; stroke:none;" d="M25 103L27 106L25 103z"/>
<path style="fill:#5e5c5a; stroke:none;" d="M26.3333 103.667L26.6667 104.333L26.3333 103.667M42 103L43 104L42 103z"/>
<path style="fill:#8b9196; stroke:none;" d="M44.6667 103.333L45.3333 103.667L44.6667 103.333z"/>
<path style="fill:#6d7176; stroke:none;" d="M46 103L48 105L46 103z"/>
<path style="fill:#5e5c5a; stroke:none;" d="M47 103L48 104L47 103M146 103L149 105L149 104L146 103z"/>
<path style="fill:#6d7176; stroke:none;" d="M147 103L148 104L147 103z"/>
<path style="fill:#8b9196; stroke:none;" d="M148 103L148 104L151 104L148 103z"/>
<path style="fill:#6d7176; stroke:none;" d="M151 103L152 104L151 103z"/>
<path style="fill:#5e5c5a; stroke:none;" d="M168 103L169 107L170 107L168 103z"/>
<path style="fill:#6d7176; stroke:none;" d="M169.333 103.667L169.667 104.333L169.333 103.667z"/>
<path style="fill:#5e5c5a; stroke:none;" d="M46 104L47 105L46 104z"/>
<path style="fill:#8b9196; stroke:none;" d="M48 104L48 105L51 105L48 104z"/>
<path style="fill:#6d7176; stroke:none;" d="M51 104L52 105L51 104z"/>
<path style="fill:#5e5c5a; stroke:none;" d="M51 106L54 104L51 106M140 104L140 105L144 106L144 105L140 104z"/>
<path style="fill:#6d7176; stroke:none;" d="M142 104L143 105L142 104z"/>
<path style="fill:#8b9196; stroke:none;" d="M143 104L143 105L146 105L143 104z"/>
<path style="fill:#6d7176; stroke:none;" d="M146 104L147 105L146 104z"/>
<path style="fill:#5e5c5a; stroke:none;" d="M25.3333 105.667L25.6667 106.333L25.3333 105.667z"/>
<path style="fill:#6d7176; stroke:none;" d="M53 105L54 106L53 105z"/>
<path style="fill:#8b9196; stroke:none;" d="M54 105L54 106L57 106L54 105z"/>
<path style="fill:#6d7176; stroke:none;" d="M57 105L57 106L61 107L61 106L57 105z"/>
<path style="fill:#5e5c5a; stroke:none;" d="M59.6667 105.333L60.3333 105.667L59.6667 105.333M133 105L133 106L137 107L137 106L133 105z"/>
<path style="fill:#6d7176; stroke:none;" d="M136 105L137 106L136 105z"/>
<path style="fill:#8b9196; stroke:none;" d="M137 105L137 106L140 106L137 105z"/>
<path style="fill:#6d7176; stroke:none;" d="M140.667 105.333L141.333 105.667L140.667 105.333M168 105L169 106L168 105z"/>
<path style="fill:#8b9196; stroke:none;" d="M26 106L26 109L27 109L26 106z"/>
<path style="fill:#5e5c5a; stroke:none;" d="M57.6667 106.333L58.3333 106.667L57.6667 106.333z"/>
<path style="fill:#8b9196; stroke:none;" d="M61 106L61 107L66 107L61 106z"/>
<path style="fill:#6d7176; stroke:none;" d="M66 106L66 107L71 108L71 107L66 106z"/>
<path style="fill:#5e5c5a; stroke:none;" d="M68 106L68 107L71 107L68 106M124 106L124 107L129 108L129 107L124 106z"/>
<path style="fill:#6d7176; stroke:none;" d="M127.667 106.333L128.333 106.667L127.667 106.333z"/>
<path style="fill:#8b9196; stroke:none;" d="M129 106L129 107L133 107L129 106z"/>
<path style="fill:#6d7176; stroke:none;" d="M133.667 106.333L134.333 106.667L133.667 106.333z"/>
<path style="fill:#8b9196; stroke:none;" d="M168 106L168 109L169 109L168 106z"/>
<path style="fill:#5e5c5a; stroke:none;" d="M65 107L65 108L68 108L65 107z"/>
<path style="fill:#8b9196; stroke:none;" d="M71 107L71 108L78 108L71 107z"/>
<path style="fill:#6d7176; stroke:none;" d="M78 107L78 108L82 108L78 107z"/>
<path style="fill:#5e5c5a; stroke:none;" d="M77 108L77 109L91 108L77 108M104 107L104 108L117 109L104 107z"/>
<path style="fill:#6d7176; stroke:none;" d="M113 107L113 108L117 108L113 107z"/>
<path style="fill:#8b9196; stroke:none;" d="M117 107L117 108L124 108L117 107z"/>
<path style="fill:#6d7176; stroke:none;" d="M124.667 107.333L125.333 107.667L124.667 107.333M83 108L83 109L91 109L83 108z"/>
<path style="fill:#8b9196; stroke:none;" d="M91 108L91 109L104 109L91 108z"/>
<path style="fill:#6d7176; stroke:none;" d="M104 108L104 109L111 109L104 108M26 109L28 111L26 109z"/>
<path style="fill:#5e5c5a; stroke:none;" d="M27 109L28 110L27 109M167 109L169 111L167 109z"/>
<path style="fill:#6d7176; stroke:none;" d="M168 109L169 110L168 109z"/>
<path style="fill:#5e5c5a; stroke:none;" d="M26 110L27 111L26 110z"/>
<path style="fill:#6d7176; stroke:none;" d="M167 110L168 111L167 110z"/>
<path style="fill:#8b9196; stroke:none;" d="M27.3333 111.667L27.6667 112.333L27.3333 111.667M167.333 111.667L167.667 112.333L167.333 111.667z"/>
<path style="fill:#6d7176; stroke:none;" d="M27 113L28 114L27 113z"/>
<path style="fill:#5e5c5a; stroke:none;" d="M28 113L27 115L28 113M166 113L168 115L166 113z"/>
<path style="fill:#6d7176; stroke:none;" d="M167 113L168 114L167 113z"/>
<path style="fill:#8b9196; stroke:none;" d="M28.3333 114.667L28.6667 115.333L28.3333 114.667M166.333 114.667L166.667 115.333L166.333 114.667z"/>
<path style="fill:#6d7176; stroke:none;" d="M28 116L29 117L28 116z"/>
<path style="fill:#5e5c5a; stroke:none;" d="M29 116L28 118L29 116M165 116L167 118L165 116z"/>
<path style="fill:#6d7176; stroke:none;" d="M166 116L167 117L166 116z"/>
<path style="fill:#8b9196; stroke:none;" d="M29.3333 117.667L29.6667 118.333L29.3333 117.667M165.333 117.667L165.667 118.333L165.333 117.667z"/>
<path style="fill:#5e5c5a; stroke:none;" d="M29 119L30 120L29 119z"/>
<path style="fill:#6d7176; stroke:none;" d="M30 119L31 120L30 119M164 119L165 120L164 119z"/>
<path style="fill:#5e5c5a; stroke:none;" d="M165 119L166 120L165 119z"/>
<path style="fill:#8b9196; stroke:none;" d="M30 120L31 121L30 120M164 120L165 121L164 120z"/>
<path style="fill:#6d7176; stroke:none;" d="M30 121L31 122L30 121z"/>
<path style="fill:#5e5c5a; stroke:none;" d="M31 121L30 123L31 121M163 121L165 123L163 121z"/>
<path style="fill:#6d7176; stroke:none;" d="M164 121L165 122L164 121z"/>
<path style="fill:#8b9196; stroke:none;" d="M31.3333 122.667L31.6667 123.333L31.3333 122.667M163.333 122.667L163.667 123.333L163.333 122.667z"/>
<path style="fill:#5e5c5a; stroke:none;" d="M32 123L31 125L32 123M162 123L164 125L162 123z"/>
<path style="fill:#6d7176; stroke:none;" d="M32 124L33 125L32 124M162 124L163 125L162 124z"/>
<path style="fill:#8b9196; stroke:none;" d="M32 125L33 126L32 125z"/>
<path style="fill:#5e5c5a; stroke:none;" d="M33 125L32 127L33 125M161 125L163 127L161 125z"/>
<path style="fill:#8b9196; stroke:none;" d="M162 125L163 126L162 125z"/>
<path style="fill:#6d7176; stroke:none;" d="M33 126L34 127L33 126M161 126L162 127L161 126z"/>
<path style="fill:#8b9196; stroke:none;" d="M33 127L35 129L33 127z"/>
<path style="fill:#5e5c5a; stroke:none;" d="M34 127L35 128L34 127M160 127L162 129L160 127z"/>
<path style="fill:#8b9196; stroke:none;" d="M161 127L162 128L161 127z"/>
<path style="fill:#5e5c5a; stroke:none;" d="M33 128L34 129L33 128z"/>
<path style="fill:#8b9196; stroke:none;" d="M160 128L161 129L160 128z"/>
<path style="fill:#6d7176; stroke:none;" d="M34 129L35 130L34 129z"/>
<path style="fill:#5e5c5a; stroke:none;" d="M35 129L36 130L35 129M159 129L160 130L159 129z"/>
<path style="fill:#6d7176; stroke:none;" d="M160 129L161 130L160 129z"/>
<path style="fill:#8b9196; stroke:none;" d="M35 130L36 131L35 130M159 130L160 131L159 130z"/>
<path style="fill:#5e5c5a; stroke:none;" d="M35 131L36 132L35 131z"/>
<path style="fill:#6d7176; stroke:none;" d="M36 131L37 132L36 131M158 131L159 132L158 131z"/>
<path style="fill:#5e5c5a; stroke:none;" d="M159 131L160 132L159 131z"/>
<path style="fill:#8b9196; stroke:none;" d="M36 132L38 134L36 132z"/>
<path style="fill:#5e5c5a; stroke:none;" d="M37 132L38 133L37 132M157 132L159 134L157 132z"/>
<path style="fill:#8b9196; stroke:none;" d="M158 132L159 133L158 132z"/>
<path style="fill:#5e5c5a; stroke:none;" d="M36 133L37 134L36 133z"/>
<path style="fill:#8b9196; stroke:none;" d="M157 133L158 134L157 133z"/>
<path style="fill:#6d7176; stroke:none;" d="M37.6667 134.333L38.3333 134.667L37.6667 134.333M156.667 134.333L157.333 134.667L156.667 134.333z"/>
<path style="fill:#8b9196; stroke:none;" d="M38 135L41 138L38 135z"/>
<path style="fill:#5e5c5a; stroke:none;" d="M39 135L40 136L39 135M155 135L156 136L155 135z"/>
<path style="fill:#8b9196; stroke:none;" d="M156 135L157 136L156 135M155 136L154 138L155 136z"/>
<path style="fill:#5e5c5a; stroke:none;" d="M39 137L40 138L39 137M155 137L156 138L155 137z"/>
<path style="fill:#6d7176; stroke:none;" d="M40 138L42 140L42 138L40 138M153 138L153 140L155 138L153 138z"/>
<path style="fill:#5e5c5a; stroke:none;" d="M42 139L51 148L42 139M152 139L144 148C147.989 146.296 152.254 143.895 152 139z"/>
<path style="fill:#8b9196; stroke:none;" d="M42 140L43 141L42 140M152 140L153 141L152 140M43 141L44 142L43 141M151 141L152 142L151 141M44 142L48 146L44 142M150 142L147 146L150 142M48 146L49 147L48 146M146 146L147 147L146 146M49 147L50 148L49 147M145 147L146 148L145 147M50 148L51 149L50 148z"/>
<path style="fill:#6d7176; stroke:none;" d="M51 148L51 150L53 150L51 148M143 148L142 150L144 150L143 148z"/>
<path style="fill:#8b9196; stroke:none;" d="M144 148L145 149L144 148z"/>
<path style="fill:#5e5c5a; stroke:none;" d="M52 150L52 151L56 152L56 151L52 150z"/>
<path style="fill:#8b9196; stroke:none;" d="M53 150L54 151L53 150z"/>
<path style="fill:#5e5c5a; stroke:none;" d="M139 151L139 152L143 151L139 151z"/>
<path style="fill:#8b9196; stroke:none;" d="M141 150L142 151L141 150M54 151L55 152L54 151M140 151L141 152L140 151z"/>
<path style="fill:#6d7176; stroke:none;" d="M55 152L56 153L55 152z"/>
<path style="fill:#8b9196; stroke:none;" d="M56 152L58 154L56 152M138 152L137 154L138 152z"/>
<path style="fill:#6d7176; stroke:none;" d="M139 152L140 153L139 152z"/>
<path style="fill:#5e5c5a; stroke:none;" d="M56 153L57 154L56 153M58 153L59 154L58 153M136 153L137 154L136 153M138 153L139 154L138 153z"/>
<path style="fill:#6d7176; stroke:none;" d="M58 154L59 155L58 154z"/>
<path style="fill:#8b9196; stroke:none;" d="M59 154L61 156L59 154z"/>
<path style="fill:#5e5c5a; stroke:none;" d="M60 154L61 155L60 154M134 154L136 156L134 154z"/>
<path style="fill:#8b9196; stroke:none;" d="M135 154L136 155L135 154z"/>
<path style="fill:#6d7176; stroke:none;" d="M136 154L137 155L136 154z"/>
<path style="fill:#5e5c5a; stroke:none;" d="M59 155L60 156L59 155z"/>
<path style="fill:#6d7176; stroke:none;" d="M61 155L62 156L61 155M133 155L134 156L133 155z"/>
<path style="fill:#8b9196; stroke:none;" d="M134 155L135 156L134 155z"/>
<path style="fill:#5e5c5a; stroke:none;" d="M61 156L62 157L61 156z"/>
<path style="fill:#8b9196; stroke:none;" d="M62 156L63 157L62 156z"/>
<path style="fill:#5e5c5a; stroke:none;" d="M63 156L64 157L63 156M131 156L132 157L131 156z"/>
<path style="fill:#8b9196; stroke:none;" d="M132 156L133 157L132 156z"/>
<path style="fill:#5e5c5a; stroke:none;" d="M133 156L134 157L133 156z"/>
<path style="fill:#6d7176; stroke:none;" d="M63 157L64 158L63 157z"/>
<path style="fill:#8b9196; stroke:none;" d="M64 157L65 158L64 157z"/>
<path style="fill:#5e5c5a; stroke:none;" d="M65 157L66 158L65 157M129 157L130 158L129 157z"/>
<path style="fill:#8b9196; stroke:none;" d="M130 157L131 158L130 157z"/>
<path style="fill:#6d7176; stroke:none;" d="M131 157L132 158L131 157M65 158L66 159L65 158z"/>
<path style="fill:#8b9196; stroke:none;" d="M66 158L67 159L66 158z"/>
<path style="fill:#6d7176; stroke:none;" d="M67.3333 158.667L67.6667 159.333L67.3333 158.667M127.333 158.667L127.667 159.333L127.333 158.667z"/>
<path style="fill:#8b9196; stroke:none;" d="M128 158L129 159L128 158z"/>
<path style="fill:#6d7176; stroke:none;" d="M129 158L130 159L129 158z"/>
<path style="fill:#8b9196; stroke:none;" d="M68 159L69 160L68 159z"/>
<path style="fill:#6d7176; stroke:none;" d="M69 159L70 160L69 159z"/>
<path style="fill:#5e5c5a; stroke:none;" d="M70 159L69 161L70 159M124 159L126 161L124 159z"/>
<path style="fill:#6d7176; stroke:none;" d="M125 159L126 160L125 159z"/>
<path style="fill:#8b9196; stroke:none;" d="M126 159L127 160L126 159M70.6667 160.333L71.3333 160.667L70.6667 160.333z"/>
<path style="fill:#5e5c5a; stroke:none;" d="M72 160L73 161L72 160M122 160L123 161L122 160z"/>
<path style="fill:#8b9196; stroke:none;" d="M123.667 160.333L124.333 160.667L123.667 160.333z"/>
<path style="fill:#6d7176; stroke:none;" d="M72 161L73 162L72 161z"/>
<path style="fill:#8b9196; stroke:none;" d="M73.6667 161.333L74.3333 161.667L73.6667 161.333z"/>
<path style="fill:#5e5c5a; stroke:none;" d="M75 161L74 163L75 161M119 161L121 163L119 161z"/>
<path style="fill:#8b9196; stroke:none;" d="M120.667 161.333L121.333 161.667L120.667 161.333z"/>
<path style="fill:#6d7176; stroke:none;" d="M122 161L123 162L122 161M75 162L76 163L75 162z"/>
<path style="fill:#8b9196; stroke:none;" d="M76.6667 162.333L77.3333 162.667L76.6667 162.333z"/>
<path style="fill:#6d7176; stroke:none;" d="M78 162L80 164L78 162z"/>
<path style="fill:#5e5c5a; stroke:none;" d="M79 162L80 163L79 162M115 162L117 164L115 162z"/>
<path style="fill:#6d7176; stroke:none;" d="M116 162L117 163L116 162z"/>
<path style="fill:#8b9196; stroke:none;" d="M117.667 162.333L118.333 162.667L117.667 162.333z"/>
<path style="fill:#6d7176; stroke:none;" d="M119 162L120 163L119 162z"/>
<path style="fill:#5e5c5a; stroke:none;" d="M78 163L79 164L78 163z"/>
<path style="fill:#8b9196; stroke:none;" d="M80.6667 163.333L81.3333 163.667L80.6667 163.333z"/>
<path style="fill:#6d7176; stroke:none;" d="M82 163L84 165L82 163z"/>
<path style="fill:#5e5c5a; stroke:none;" d="M83 163L84 164L83 163M111 163L113 165L111 163z"/>
<path style="fill:#6d7176; stroke:none;" d="M112 163L113 164L112 163z"/>
<path style="fill:#8b9196; stroke:none;" d="M113.667 163.333L114.333 163.667L113.667 163.333z"/>
<path style="fill:#6d7176; stroke:none;" d="M115 163L116 164L115 163z"/>
<path style="fill:#5e5c5a; stroke:none;" d="M82 164L83 165L82 164z"/>
<path style="fill:#8b9196; stroke:none;" d="M84 164L84 165L87 165L84 164z"/>
<path style="fill:#6d7176; stroke:none;" d="M87 164L87 165L91 166L91 165L87 164z"/>
<path style="fill:#5e5c5a; stroke:none;" d="M89 164L89 165L92 165L89 164M103 164L103 165L108 166L108 165L103 164z"/>
<path style="fill:#6d7176; stroke:none;" d="M106.667 164.333L107.333 164.667L106.667 164.333z"/>
<path style="fill:#8b9196; stroke:none;" d="M108 164L108 165L111 165L108 164z"/>
<path style="fill:#6d7176; stroke:none;" d="M111 164L112 165L111 164z"/>
<path style="fill:#5e5c5a; stroke:none;" d="M87.6667 165.333L88.3333 165.667L87.6667 165.333z"/>
<path style="fill:#8b9196; stroke:none;" d="M91 165L91 166L104 166L91 165z"/>
<path style="fill:#6d7176; stroke:none;" d="M104.667 165.333L105.333 165.667L104.667 165.333z"/>
</svg>
